<?xml version="1.0" standalone="no"?><!DOCTYPE svg PUBLIC "-//W3C//DTD SVG 1.1//EN" "http://www.w3.org/Graphics/SVG/1.1/DTD/svg11.dtd"><svg t="1721120511829" class="icon" viewBox="0 0 1024 1024" version="1.1" xmlns="http://www.w3.org/2000/svg" p-id="12140" xmlns:xlink="http://www.w3.org/1999/xlink" width="200" height="200"><path d="M235.25376 631.69536l29.68576-47.18592 55.77216 10.10688-36.86912-41.97376 27.13088-48.58368-52.43904 21.19168-39.05024-40.15104 4.48 55.09632-51.18976 23.80288 55.14752 12.86144 7.33184 54.8352z m40.71936-207.83104L364.032 340.85888l109.56288 51.968-52.33152-108.72832 83.62496-87.37792-120.39168 15.77984-57.856-105.91744-22.02624 118.51776-119.45472 21.87264 106.752 57.43616-15.93856 119.45472z m199.86432 51.34336l-25.984-26.71616 2.9696 36.7104-34.05312 15.82592 36.7104 8.59648 4.89472 36.5568 19.6864-31.45216 37.12512 6.76352-24.4736-28.01152 17.96096-32.38912-34.83648 14.11584z m331.4432-272.13312c-39.31648-39.00416-84.30592-68.736-132.10624-90.1376 73.84064 162.83136 43.89376 360.76032-90.92096 494.5408-134.76864 133.7856-334.21312 163.51232-498.24256 90.19392 21.56032 47.49312 51.50208 92.11904 90.81344 131.11808 174.08512 172.78464 456.38144 172.78464 630.45632 0 174.08-172.83072 174.08-452.93568 0-625.7152z" p-id="12141"></path></svg>